<?xml version="1.0" encoding="UTF-8" standalone="no"?>
<svg width="146px" height="49px" viewBox="0 0 146 49" version="1.1" xmlns="http://www.w3.org/2000/svg" xmlns:xlink="http://www.w3.org/1999/xlink" xmlns:sketch="http://www.bohemiancoding.com/sketch/ns">
    <!-- Generator: Sketch 3.5.2 (25235) - http://www.bohemiancoding.com/sketch -->
    <title>Group</title>
    <desc>Created with Sketch.</desc>
    <defs>
        <rect id="path-1" x="4.4294049" y="4.59183673" width="41.0329517" height="41.502794"></rect>
        <rect id="path-2" x="1.02217036" y="1.19047619" width="47.6964225" height="48.242564"></rect>
        <rect id="path-3" x="1.02217036" y="1.19047619" width="47.6964225" height="48.242564"></rect>
        <ellipse id="path-4" cx="24.9358952" cy="25.3286451" rx="20.1657669" ry="20.3966723"></ellipse>
        <ellipse id="path-5" cx="24.8516258" cy="25.1267017" rx="11.2226877" ry="11.3511915"></ellipse>
        <ellipse id="path-6" cx="24.7467777" cy="25.1435886" rx="7.54024327" ry="7.62658181"></ellipse>
        <path id="path-7" d="M1.19752486,1.36783856 L48.638273,49.2346939"></path>
        <path id="path-8" d="M48.5332529,1.36783856 L1.53824831,49.2556778"></path>
        <path id="path-9" d="M36.1734734,1.36783856 L36.1734734,49.2437861"></path>
        <path id="path-10" d="M13.6857254,1.19777053 L13.6857254,49.0737181"></path>
        <path id="path-11" d="M48.725507,36.4776914 L1.19253209,36.4776914"></path>
        <path id="path-12" d="M48.725507,13.6885757 L1.19253209,13.6885757"></path>
    </defs>
    <g id="Page-1" stroke="none" stroke-width="1" fill="none" fill-rule="evenodd" sketch:type="MSPage">
        <g id="Group" sketch:type="MSLayerGroup" transform="translate(0.000000, -1.000000)">
            <path d="M69.0827595,40.9614711 C70.660893,40.9614711 72.0749418,40.7898941 73.3249485,40.4467348 C74.5749552,40.1035756 75.6335388,39.592744 76.5007309,38.9142246 C77.3679231,38.2357052 78.0280729,37.385619 78.4812004,36.3639404 C78.9343278,35.3422618 79.1608881,34.16072 79.1608881,32.8192794 C79.1608881,31.6338202 78.9226092,30.5614637 78.4460441,29.6021777 C77.9694791,28.6428917 77.2976105,27.8240013 76.4304184,27.145482 C75.5632262,26.4669626 74.5085489,25.948332 73.2663548,25.5895746 C72.0241606,25.2308173 70.6452676,25.0514413 69.1296345,25.0514413 L59.8483812,25.0514413 L59.8483812,40.9614711 L69.0827595,40.9614711 L69.0827595,40.9614711 Z M59.8483812,9.14141144 L59.8483812,24.5834992 L68.0515091,24.5834992 C69.8015185,24.5834992 71.2858792,24.3417316 72.5046357,23.858189 C73.7233923,23.3746465 74.7155702,22.7546295 75.4811993,21.9981194 C76.2468284,21.2416093 76.8015106,20.4071209 77.1452624,19.4946294 C77.4890142,18.5821378 77.6608876,17.6891573 77.6608876,16.8156611 C77.6608876,14.3823503 76.8523016,12.4950029 75.2351055,11.1535623 C73.6179093,9.81212168 71.1452769,9.14141144 67.817134,9.14141144 L59.8483812,9.14141144 L59.8483812,9.14141144 Z M67.817134,8.67346939 C71.3015277,8.67346939 73.8991589,9.37147597 75.6101056,10.7675101 C77.3210523,12.1635442 78.1765128,14.1795744 78.1765128,16.8156611 C78.1765128,17.7827462 77.9851084,18.718621 77.6022938,19.6233134 C77.2194793,20.5280059 76.6921406,21.3390974 76.020262,22.0566121 C75.3483834,22.7741269 74.5515161,23.370747 73.6296361,23.8464905 C72.7077562,24.3222339 71.7077658,24.6146948 70.6296351,24.7238818 C72.0358926,24.8174707 73.2975992,25.0709368 74.4147927,25.4842877 C75.5319862,25.8976385 76.485102,26.4513644 77.2741687,27.145482 C78.0632354,27.8395995 78.6686983,28.6623894 79.0905756,29.6138763 C79.5124529,30.5653632 79.7233883,31.6338202 79.7233883,32.8192794 C79.7233883,34.2075144 79.4851094,35.4397495 79.0085443,36.5160216 C78.5319793,37.5922937 77.8366735,38.4930731 76.9226061,39.2183869 C76.0085387,39.9437008 74.8913619,40.4935272 73.5710424,40.8678827 C72.2507228,41.2422382 70.7546435,41.4294132 69.0827595,41.4294132 L59.285881,41.4294132 L59.285881,8.67346939 L67.817134,8.67346939 L67.817134,8.67346939 Z M99.9968331,29.6840676 C95.0749317,29.8400491 91.4148108,30.4522671 89.0163604,31.5207402 C86.6179101,32.5892132 85.4187029,34.0983112 85.4187029,36.0480795 C85.4187029,36.9683702 85.5710451,37.7599642 85.8757343,38.4228855 C86.1804234,39.0858067 86.5827633,39.6317336 87.082766,40.0606826 C87.5827686,40.4896317 88.1530756,40.8093889 88.7937041,41.0199639 C89.4343325,41.2305388 90.0905762,41.3358247 90.7624548,41.3358247 C91.8405856,41.3358247 92.8171386,41.2110414 93.6921433,40.9614711 C94.567148,40.7119008 95.375734,40.3765456 96.1179255,39.9553957 C96.8601169,39.5342457 97.5476103,39.046811 98.1804262,38.4930768 C98.8132421,37.9393426 99.418705,37.3583203 99.9968331,36.7499926 L99.9968331,29.6840676 L99.9968331,29.6840676 Z M86.0749531,21.7758469 C87.1999591,20.5903878 88.3640104,19.6857088 89.5671419,19.061783 C90.7702733,18.4378571 92.1686973,18.1258989 93.7624559,18.1258989 C94.9343371,18.1258989 95.9460461,18.3130738 96.7976132,18.6874293 C97.6491803,19.0617849 98.3562047,19.5999128 98.9187077,20.3018294 C99.4812107,21.003746 99.8952692,21.8577317 100.160896,22.8638122 C100.426522,23.8698926 100.559333,25.0046407 100.559333,26.2680906 L100.559333,41.4294132 L100.465583,41.4294132 C100.246832,41.4294132 100.137458,41.3046299 100.137458,41.0550595 L99.9968331,37.3115231 C99.3405796,37.9978415 98.6843359,38.6178585 98.0280824,39.1715927 C97.3718289,39.7253269 96.6765231,40.1971638 95.9421441,40.5871175 C95.2077652,40.9770711 94.4187103,41.2773309 93.5749558,41.4879059 C92.7312013,41.6984809 91.7937103,41.8037668 90.7624548,41.8037668 C90.0749511,41.8037668 89.3796453,41.6984809 88.6765165,41.4879059 C87.9733878,41.2773309 87.3405814,40.9419758 86.7780784,40.4818305 C86.2155753,40.0216852 85.7546423,39.4289645 85.3952654,38.7036507 C85.0358884,37.9783369 84.8562027,37.0931553 84.8562027,36.0480795 C84.8562027,35.0186019 85.1608872,34.0944256 85.7702655,33.2755229 C86.3796438,32.4566202 87.3054161,31.7586136 88.5476102,31.1814822 C89.7898044,30.6043508 91.3601018,30.1481118 93.2585494,29.8127517 C95.1569971,29.4773915 97.4030692,29.2785181 99.9968331,29.2161255 L99.9968331,26.2680906 C99.9968331,25.0670333 99.8640219,23.9907774 99.5983955,23.0392904 C99.332769,22.0878035 98.9421478,21.284511 98.42652,20.6293889 C97.9108923,19.9742667 97.262461,19.471234 96.4812068,19.1202757 C95.6999527,18.7693174 94.7937114,18.5938409 93.7624559,18.5938409 C92.9499515,18.5938409 92.2155836,18.6796294 91.5593301,18.8512091 C90.9030766,19.0227887 90.3171447,19.2333605 89.8015169,19.4829308 C89.2858892,19.7325012 88.8366748,20.0054646 88.4538602,20.3018294 C88.0710457,20.5981942 87.7390176,20.8711577 87.4577661,21.120728 C87.1765146,21.3702984 86.9499543,21.5808702 86.7780784,21.7524498 C86.6062024,21.9240294 86.4812036,22.0098179 86.4030782,22.0098179 C86.3405779,22.0098179 86.2624536,21.9630242 86.1687031,21.8694353 L86.0749531,21.7758469 L86.0749531,21.7758469 Z M120.879653,20.5124033 C120.832778,20.6059922 120.754654,20.652786 120.645278,20.652786 C120.520277,20.652786 120.336685,20.5475001 120.094497,20.3369251 C119.852308,20.1263501 119.500749,19.8923814 119.039809,19.635012 C118.578869,19.3776426 117.996843,19.1397744 117.293714,18.9214004 C116.590586,18.7030263 115.723406,18.5938409 114.692151,18.5938409 C113.723396,18.5938409 112.836685,18.7420211 112.031994,19.0383859 C111.227302,19.3347507 110.535902,19.728598 109.957774,20.2199396 C109.379646,20.7112812 108.930432,21.2767055 108.610117,21.9162295 C108.289803,22.5557535 108.129649,23.2264637 108.129649,23.9283803 C108.129649,24.7550821 108.324959,25.4452897 108.715586,25.9990239 C109.106213,26.5527581 109.617927,27.0206955 110.250743,27.4028501 C110.883559,27.7850047 111.606208,28.1086614 112.418713,28.3738299 C113.231217,28.6389983 114.059334,28.9002634 114.903088,29.1576328 C115.746843,29.4150022 116.57496,29.6879657 117.387464,29.9765314 C118.199969,30.2650971 118.922618,30.6277486 119.555434,31.0644967 C120.18825,31.5012448 120.699964,32.0354733 121.090591,32.6671982 C121.481218,33.2989231 121.676528,34.0827182 121.676528,35.018607 C121.676528,35.9544958 121.508561,36.8357779 121.172622,37.6624796 C120.836683,38.4891814 120.348406,39.2066854 119.707778,39.8150131 C119.067149,40.4233408 118.282001,40.9068761 117.352308,41.2656334 C116.422616,41.6243908 115.364032,41.8037668 114.176526,41.8037668 C113.348396,41.8037668 112.606216,41.7374757 111.949962,41.6048914 C111.293709,41.4723072 110.692152,41.2890317 110.145274,41.0550595 C109.598396,40.8210873 109.082776,40.5325259 108.598399,40.1893667 C108.114021,39.8462075 107.637463,39.4640586 107.168711,39.0429087 L107.309336,38.9025261 C107.356211,38.8557316 107.395273,38.8206363 107.426523,38.7972391 C107.457773,38.7738419 107.51246,38.7621434 107.590586,38.7621434 C107.715587,38.7621434 107.91871,38.8947257 108.199961,39.1598942 C108.481213,39.4250627 108.87574,39.721423 109.383555,40.0489841 C109.89137,40.3765452 110.535895,40.6729055 111.31715,40.938074 C112.098404,41.2032425 113.05152,41.3358247 114.176526,41.3358247 C115.301532,41.3358247 116.297616,41.1720467 117.164808,40.8444856 C118.032,40.5169245 118.762462,40.0684845 119.356215,39.4991522 C119.949968,38.9298198 120.399183,38.2669086 120.703872,37.5103984 C121.008561,36.7538883 121.160903,35.9388974 121.160903,35.0654012 C121.160903,34.1763069 120.965593,33.4393055 120.574965,32.854375 C120.184338,32.2694445 119.672625,31.7742108 119.039809,31.368659 C118.406993,30.9631072 117.684344,30.6238526 116.871839,30.350885 C116.059335,30.0779175 115.231218,29.8166524 114.387463,29.5670821 C113.543709,29.3175117 112.715592,29.0523472 111.903087,28.7715806 C111.090583,28.490814 110.367934,28.1437604 109.735118,27.7304095 C109.102302,27.3170586 108.590588,26.806227 108.199961,26.1978993 C107.809334,25.5895716 107.614023,24.8330728 107.614023,23.9283803 C107.614023,23.1640712 107.785897,22.4348688 108.129649,21.7407512 C108.4734,21.0466337 108.957771,20.4305162 109.582774,19.8923801 C110.207777,19.3542441 110.953864,18.9253015 111.821056,18.6055395 C112.688248,18.2857775 113.64527,18.1258989 114.692151,18.1258989 C115.989033,18.1258989 117.129647,18.3013754 118.114027,18.6523337 C119.098407,19.003292 120.051523,19.5765153 120.973403,20.3720207 L120.879653,20.5124033 L120.879653,20.5124033 Z M145.348412,27.8122994 C145.348412,26.3304755 145.137476,25.0163513 144.715599,23.8698876 C144.293722,22.7234238 143.711696,21.7602527 142.969505,20.9803454 C142.227313,20.2004381 141.356228,19.6077174 140.356223,19.2021656 C139.356217,18.7966138 138.285915,18.5938409 137.145284,18.5938409 C135.770277,18.5938409 134.532007,18.8122117 133.430439,19.2489598 C132.32887,19.6857079 131.379661,20.3096244 130.582782,21.120728 C129.785902,21.9318316 129.14919,22.9028017 128.672625,24.0336673 C128.19606,25.1645329 127.887469,26.4240644 127.746843,27.8122994 L145.348412,27.8122994 L145.348412,27.8122994 Z M145.207787,38.7153492 C144.94216,39.0429103 144.547633,39.3821649 144.024193,39.7331232 C143.500752,40.0840815 142.883571,40.4077382 142.17263,40.704103 C141.461688,41.0004677 140.684352,41.2422354 139.840597,41.4294132 C138.996843,41.6165909 138.129664,41.7101784 137.239034,41.7101784 C135.660901,41.7101784 134.246852,41.4333154 132.996845,40.8795812 C131.746838,40.325847 130.688255,39.526454 129.821063,38.4813782 C128.95387,37.4363024 128.285908,36.1572736 127.817156,34.6442534 C127.348403,33.1312332 127.11403,31.4154628 127.11403,29.4968908 C127.11403,27.812291 127.340591,26.2719971 127.793718,24.875963 C128.246846,23.4799289 128.903089,22.2827891 129.762469,21.2845077 C130.621848,20.2862264 131.67262,19.5102302 132.914814,18.956496 C134.157008,18.4027618 135.56715,18.1258989 137.145284,18.1258989 C138.348415,18.1258989 139.481217,18.3403702 140.543723,18.7693192 C141.606228,19.1982682 142.532001,19.8338832 143.321067,20.6761831 C144.110134,21.518483 144.731222,22.5518447 145.184349,23.7762992 C145.637477,25.0007537 145.864037,26.4084653 145.864037,27.9994762 C145.864037,28.0774669 145.836694,28.1359591 145.782006,28.1749545 C145.727318,28.2139498 145.660912,28.2334472 145.582787,28.2334472 L127.723406,28.2334472 C127.70778,28.4518213 127.696062,28.6623931 127.688249,28.865169 C127.680437,29.0679449 127.676531,29.2785167 127.676531,29.4968908 C127.676531,31.3998646 127.903091,33.0805397 128.356218,34.5389664 C128.809346,35.9973931 129.453871,37.2218292 130.289813,38.2123115 C131.125755,39.2027938 132.133557,39.9553931 133.313251,40.4701319 C134.492945,40.9848708 135.801526,41.2422363 137.239034,41.2422363 C138.520291,41.2422363 139.629655,41.1018551 140.56716,40.8210885 C141.504665,40.5403218 142.285908,40.2283636 142.910911,39.8852044 C143.535914,39.5420452 144.012472,39.2300869 144.340599,38.9493203 C144.668726,38.6685536 144.864036,38.5281724 144.926537,38.5281724 C144.989037,38.5281724 145.051536,38.5593682 145.114037,38.6217608 L145.207787,38.7153492 L145.207787,38.7153492 Z" id="Base" fill="#000000" sketch:type="MSShapeGroup"></path>
            <path id="Path-1" stroke="#9B9B9B" stroke-width="0.5" sketch:type="MSShapeGroup" d="M52.1306884,1.36054422 L104.147612,1.36054422"></path>
            <path id="Path-1" stroke="#9B9B9B" stroke-width="0.5" sketch:type="MSShapeGroup" d="M103.920653,1.2755102 L103.920653,8.60621134"></path>
            <path id="Path-1" stroke="#9B9B9B" stroke-width="0.5" sketch:type="MSShapeGroup" d="M52.3010502,41.7517007 L52.3010502,49.4064623"></path>
            <path id="Path-1" stroke="#9B9B9B" stroke-width="0.5" sketch:type="MSShapeGroup" d="M52.3010502,49.1496599 L104.317973,49.1496599"></path>
            <g id="Rectangle-1">
                <use stroke="#9B9B9B" stroke-width="0.5" sketch:type="MSShapeGroup" xlink:href="#path-1"></use>
                <use stroke="none" xlink:href="#path-1"></use>
            </g>
            <g id="Rectangle-1">
                <use stroke="#9B9B9B" stroke-width="0.5" sketch:type="MSShapeGroup" xlink:href="#path-2"></use>
                <use stroke="none" xlink:href="#path-2"></use>
            </g>
            <g id="Rectangle-1">
                <use stroke="#9B9B9B" stroke-width="0.5" sketch:type="MSShapeGroup" xlink:href="#path-3"></use>
                <use stroke="none" xlink:href="#path-3"></use>
            </g>
            <g id="Oval-1">
                <use stroke="#9B9B9B" stroke-width="0.5" sketch:type="MSShapeGroup" xlink:href="#path-4"></use>
                <use stroke="none" xlink:href="#path-4"></use>
            </g>
            <g id="Oval-1">
                <use stroke="#9B9B9B" stroke-width="0.5" sketch:type="MSShapeGroup" xlink:href="#path-5"></use>
                <use stroke="none" xlink:href="#path-5"></use>
            </g>
            <g id="Oval-1">
                <use stroke="#9B9B9B" stroke-width="0.5" sketch:type="MSShapeGroup" xlink:href="#path-6"></use>
                <use stroke="none" xlink:href="#path-6"></use>
            </g>
            <g id="Path-1">
                <use stroke="#9B9B9B" stroke-width="0.5" fill="none" sketch:type="MSShapeGroup" xlink:href="#path-7"></use>
                <use stroke="none" fill="#FDFAFA" fill-rule="evenodd" xlink:href="#path-7"></use>
            </g>
            <g id="Path-1">
                <use stroke="#9B9B9B" stroke-width="0.5" fill="none" sketch:type="MSShapeGroup" xlink:href="#path-8"></use>
                <use stroke="none" fill="#FDFAFA" fill-rule="evenodd" xlink:href="#path-8"></use>
            </g>
            <g id="Path-3">
                <use stroke="#9B9B9B" stroke-width="0.5" fill="none" sketch:type="MSShapeGroup" xlink:href="#path-9"></use>
                <use stroke="none" fill="#FDFAFA" fill-rule="evenodd" xlink:href="#path-9"></use>
            </g>
            <g id="Path-3">
                <use stroke="#9B9B9B" stroke-width="0.5" fill="none" sketch:type="MSShapeGroup" xlink:href="#path-10"></use>
                <use stroke="none" fill="#FDFAFA" fill-rule="evenodd" xlink:href="#path-10"></use>
            </g>
            <g id="Path-3">
                <use stroke="#9B9B9B" stroke-width="0.5" fill="none" sketch:type="MSShapeGroup" xlink:href="#path-11"></use>
                <use stroke="none" fill="#FDFAFA" fill-rule="evenodd" xlink:href="#path-11"></use>
            </g>
            <g id="Path-3">
                <use stroke="#9B9B9B" stroke-width="0.5" fill="none" sketch:type="MSShapeGroup" xlink:href="#path-12"></use>
                <use stroke="none" fill="#FDFAFA" fill-rule="evenodd" xlink:href="#path-12"></use>
            </g>
        </g>
    </g>
</svg>